# xmcd
#
# Track frame offsets:
#	150
#	13075
#	23360
#	50417
#	62830
#	77340
#	88830
#	101782
#	112150
#	122652
#	133710
#	148037
#	158510
#	170620
#	180610
#
# Disc length: 2571 seconds
#
# Revision: 1
# Processed by: cddbd v1.4PL0 Copyright (c) Steve Scherf et al.
# Submitted via: audiograbber 1.81.03
#
DISCID=c30a090f
DTITLE=Various Artist - Country Stars Vol 1 Disk B
DYEAR=1900
DGENRE=Country
TTITLE0=Kenny Rogers - Ruby, Don't Take Your Love to Town
TTITLE1=Ferlin Husky - Gone
TTITLE2=Jimmy Dean - I O U
TTITLE3=Johnny Cash - I Walk The Line
TTITLE4=Tex Ritter - High Noon
TTITLE5=Dave Dudley - Six Days On The Road
TTITLE6=Bobby Helms - Fraulein
TTITLE7=George Jones - Walk Through This World With Me
TTITLE8=Waylon Jennings - Money (That's What I Want)
TTITLE9=Buck Owens - Down On The Corner Of Love
TTITLE10=Tex Ritter - I Dreamed Of A Hillbilly Heaven
TTITLE11=Roy Clark - Rose Colored Glasses
TTITLE12=Waylon Jennings - Don't Think Twice, It's All Right
TTITLE13=Jimmy Dean - A Thing Called Love
TTITLE14=Buck Owens - House Down The Block
EXTD=
EXTT0=
EXTT1=
EXTT2=
EXTT3=
EXTT4=
EXTT5=
EXTT6=
EXTT7=
EXTT8=
EXTT9=
EXTT10=
EXTT11=
EXTT12=
EXTT13=
EXTT14=
PLAYORDER=
